<?xml version="1.0" encoding="utf-8"?>
<!-- Generator: Adobe Illustrator 24.0.2, SVG Export Plug-In . SVG Version: 6.00 Build 0)  -->
<svg version="1.1" id="Layer_1" xmlns="http://www.w3.org/2000/svg" xmlns:xlink="http://www.w3.org/1999/xlink" x="0px" y="0px"
	 viewBox="0 0 512 512" style="enable-background:new 0 0 512 512;" xml:space="preserve">
<style type="text/css">
	.st0{fill:url(#SVGID_1_);}
	.st1{fill:url(#SVGID_2_);}
	.st2{opacity:0.5;fill:url(#SVGID_3_);}
	.st3{fill:url(#SVGID_4_);}
	.st4{fill:url(#SVGID_5_);}
	.st5{fill:url(#SVGID_6_);}
	.st6{fill:url(#SVGID_7_);}
	.st7{fill:url(#SVGID_8_);}
	.st8{fill:url(#SVGID_9_);}
	.st9{fill:url(#SVGID_10_);}
	.st10{fill:url(#SVGID_11_);}
	.st11{fill:url(#SVGID_12_);}
	.st12{opacity:0.2;fill:#8E9EAB;}
	.st13{fill:#F7F5FA;}
	.st14{fill:#FAFAFD;}
	.st15{opacity:0.15;fill:#FFFFFF;}
	.st16{opacity:0.25;fill:url(#SVGID_13_);}
	.st17{fill:#8E9EAB;}
	.st18{fill:#EEF2F3;}
</style>
<g>
	<linearGradient id="SVGID_1_" gradientUnits="userSpaceOnUse" x1="244.8167" y1="-5.0239" x2="248.7726" y2="25.7758">
		<stop  offset="0" style="stop-color:#EEF2F3"/>
		<stop  offset="1" style="stop-color:#8E9EAB"/>
	</linearGradient>
	<polygon class="st0" points="215.88,6.78 253.09,32.78 277.51,12.43 253.09,0 	"/>
	<linearGradient id="SVGID_2_" gradientUnits="userSpaceOnUse" x1="352.6818" y1="242.9664" x2="338.3546" y2="4.6839">
		<stop  offset="0" style="stop-color:#8E9EAB"/>
		<stop  offset="0.5" style="stop-color:#D3CDDD"/>
		<stop  offset="1" style="stop-color:#8E9EAB"/>
	</linearGradient>
	<polygon class="st1" points="269.37,247.52 253.09,32.78 277.51,12.43 398.75,210.79 438,215.88 392.65,265.61 324.03,265.61 	"/>
	<linearGradient id="SVGID_3_" gradientUnits="userSpaceOnUse" x1="159.9435" y1="145.9143" x2="258.2245" y2="152.8112">
		<stop  offset="0" style="stop-color:#8E9EAB"/>
		<stop  offset="1" style="stop-color:#EEF2F3"/>
	</linearGradient>
	<polygon class="st2" points="269.37,247.52 213.55,292.73 74,223.79 104.81,206.27 210.24,16.89 215.88,6.78 237.25,21.71 
		253.09,32.78 	"/>
	<linearGradient id="SVGID_4_" gradientUnits="userSpaceOnUse" x1="213.5518" y1="294.4283" x2="324.0337" y2="294.4283">
		<stop  offset="0" style="stop-color:#93BCE4"/>
		<stop  offset="1" style="stop-color:#0075BE"/>
	</linearGradient>
	<polygon class="st3" points="324.03,265.61 276.35,341.33 213.55,292.73 269.37,247.52 	"/>
	<linearGradient id="SVGID_5_" gradientUnits="userSpaceOnUse" x1="372.8778" y1="335.6823" x2="438.0045" y2="335.6823">
		<stop  offset="0" style="stop-color:#8E9EAB"/>
		<stop  offset="1" style="stop-color:#EEF2F3"/>
	</linearGradient>
	<polygon class="st4" points="438,215.88 372.88,455.49 392.65,265.61 	"/>
	<linearGradient id="SVGID_6_" gradientUnits="userSpaceOnUse" x1="272.8625" y1="388.8036" x2="392.6481" y2="388.8036">
		<stop  offset="0" style="stop-color:#8E9EAB"/>
		<stop  offset="1" style="stop-color:#EEF2F3"/>
	</linearGradient>
	<polygon class="st5" points="324.03,265.61 276.35,341.33 272.86,512 325.2,475.83 324.62,465.66 372.88,455.49 392.65,265.61 	"/>
	<linearGradient id="SVGID_7_" gradientUnits="userSpaceOnUse" x1="73.9955" y1="367.8944" x2="276.3514" y2="367.8944">
		<stop  offset="0" style="stop-color:#8E9EAB"/>
		<stop  offset="1" style="stop-color:#FFFFFF"/>
	</linearGradient>
	<polygon class="st6" points="74,223.79 154.24,476.96 272.86,512 276.35,341.33 213.55,292.73 	"/>
	<linearGradient id="SVGID_8_" gradientUnits="userSpaceOnUse" x1="341.1302" y1="395.5429" x2="238.9097" y2="379.4028">
		<stop  offset="0" style="stop-color:#8E9EAB"/>
		<stop  offset="1" style="stop-color:#EEF2F3"/>
	</linearGradient>
	<polygon class="st7" points="325.2,475.83 324.03,265.61 276.35,341.33 272.86,512 	"/>
	<linearGradient id="SVGID_9_" gradientUnits="userSpaceOnUse" x1="286.6712" y1="228.2855" x2="257.1344" y2="312.3519">
		<stop  offset="0" style="stop-color:#8E9EAB"/>
		<stop  offset="1" style="stop-color:#EEF2F3"/>
	</linearGradient>
	<polygon class="st8" points="324.03,265.61 276.35,341.33 213.55,292.73 269.37,247.52 	"/>
	<linearGradient id="SVGID_10_" gradientUnits="userSpaceOnUse" x1="177.3214" y1="223.7564" x2="156.7635" y2="267.1563">
		<stop  offset="0" style="stop-color:#8E9EAB"/>
		<stop  offset="1" style="stop-color:#EEF2F3"/>
	</linearGradient>
	<polygon class="st9" points="269.37,247.52 104.81,206.27 74,223.79 213.55,292.73 	"/>
	<linearGradient id="SVGID_11_" gradientUnits="userSpaceOnUse" x1="341.4393" y1="210.7273" x2="379.5954" y2="276.055">
		<stop  offset="0" style="stop-color:#8E9EAB"/>
		<stop  offset="1" style="stop-color:#EEF2F3"/>
	</linearGradient>
	<polygon class="st10" points="269.37,247.52 368.81,236.22 398.75,210.79 438,215.88 392.65,265.61 324.03,265.61 	"/>
	<linearGradient id="SVGID_12_" gradientUnits="userSpaceOnUse" x1="384.6427" y1="224.9742" x2="259.6358" y2="12.084">
		<stop  offset="0" style="stop-color:#8E9EAB"/>
		<stop  offset="0.5" style="stop-color:#D3CDDD"/>
		<stop  offset="1" style="stop-color:#EEF2F3"/>
	</linearGradient>
	<polygon class="st11" points="253.09,32.78 368.81,236.22 398.75,210.79 277.51,12.43 	"/>
	<polygon class="st12" points="268.79,247.52 368.23,236.22 392.07,265.61 323.45,265.61 	"/>
	<polygon class="st13" points="247.74,29.04 269.37,247.52 255.93,30.31 252.22,27.79 	"/>
	<polygon class="st14" points="259.97,328.67 273.15,343.31 272.86,512 278.53,342.75 288.18,322.54 275.48,339.5 	"/>
	<polygon class="st15" points="158.89,143.54 225.18,71.21 241.46,133.37 215.88,205.7 115.86,205.7 	"/>
	<polygon class="st15" points="217.62,28.26 196.98,229.44 247.76,242.25 239.72,41.25 	"/>
	<polygon class="st15" points="130.54,212.42 214.86,233.89 237.39,21.62 216.02,6.71 	"/>
	<polygon class="st15" points="269.51,247.45 253.23,32.71 237.39,21.62 234.14,238.51 	"/>
	<polygon class="st15" points="218.34,12.36 140.25,214.88 140.04,215.43 104.95,206.2 210.38,16.82 212.25,15.78 	"/>
	<polygon class="st15" points="104.23,240.37 154.24,476.96 177.11,483.74 130.59,252.42 	"/>
	<polygon class="st15" points="208.9,490.53 104.23,240.37 154.24,476.96 	"/>
	<polygon class="st15" points="272.86,512 154.24,476.96 133.45,411.38 108.4,332.34 74,223.79 152.37,337.38 193.75,397.34 
		205.93,414.99 	"/>
	<polygon class="st15" points="213.55,292.73 272.86,512 147.65,478.47 	"/>
	<polygon class="st15" points="173.43,272.39 154.24,476.96 208.9,490.53 	"/>
	<polygon class="st15" points="74.43,223.79 173.87,272.39 209.34,490.53 	"/>
	<polygon class="st15" points="275.92,339.5 173.87,272.39 177.55,483.74 	"/>
	<polygon class="st15" points="270.39,418.19 206.36,414.99 196.98,414.52 170.21,413.18 133.89,411.38 108.84,332.34 
		130.59,334.83 152.8,337.38 185.03,341.07 226.78,345.85 	"/>
	<polygon class="st15" points="272.28,17.24 316.47,242.01 269.37,247.52 255.92,30.31 	"/>
	<polygon class="st15" points="368.8,236.22 295.83,244.56 255.92,30.31 277.51,12.43 	"/>
	<polygon class="st15" points="289.25,31.44 368.8,236.22 398.75,210.79 	"/>
	<polygon class="st15" points="213.55,292.73 269.37,247.52 276.35,341.33 	"/>
	<polygon class="st15" points="295.73,277.29 220.14,298.76 269.37,247.52 	"/>
	<polygon class="st15" points="275.58,321.37 253.09,270.13 269.37,247.52 286.43,271.63 	"/>
	<polygon class="st15" points="324.03,265.61 288.18,322.54 269.37,247.52 	"/>
	<polygon class="st15" points="276.35,341.33 324.03,265.61 269.37,247.52 	"/>
	<linearGradient id="SVGID_13_" gradientUnits="userSpaceOnUse" x1="213.5518" y1="294.4283" x2="324.0337" y2="294.4283">
		<stop  offset="0" style="stop-color:#EEF2F3"/>
		<stop  offset="1" style="stop-color:#8E9EAB"/>
	</linearGradient>
	<polygon class="st16" points="269.37,247.52 213.55,292.73 276.35,341.33 324.03,265.61 	"/>
</g>
</svg>
