<?xml version="1.0" encoding="utf-8"?>
<!-- Generator: Adobe Illustrator 24.0.2, SVG Export Plug-In . SVG Version: 6.00 Build 0)  -->
<svg version="1.1" id="Layer_1" xmlns="http://www.w3.org/2000/svg" xmlns:xlink="http://www.w3.org/1999/xlink" x="0px" y="0px"
	 viewBox="0 0 512 512" style="enable-background:new 0 0 512 512;" xml:space="preserve">
<style type="text/css">
	.st0{fill:url(#SVGID_1_);}
	.st1{fill:url(#SVGID_2_);}
	.st2{fill:url(#SVGID_3_);}
	.st3{fill:url(#SVGID_4_);}
	.st4{fill:url(#SVGID_5_);}
	.st5{fill:url(#SVGID_6_);}
	.st6{fill:url(#SVGID_7_);}
	.st7{fill:url(#SVGID_8_);}
	.st8{fill:url(#SVGID_9_);}
	.st9{fill:url(#SVGID_10_);}
	.st10{fill:url(#SVGID_11_);}
	.st11{fill:url(#SVGID_12_);}
	.st12{fill:url(#SVGID_13_);}
	.st13{fill:url(#SVGID_14_);}
	.st14{fill:url(#SVGID_15_);}
	.st15{opacity:0.5;fill:url(#SVGID_16_);}
	.st16{opacity:0.85;fill:url(#SVGID_17_);}
	.st17{filter:url(#Adobe_OpacityMaskFilter);}
	.st18{filter:url(#Adobe_OpacityMaskFilter_1_);}
	.st19{mask:url(#SVGID_18_);fill:url(#SVGID_19_);}
	.st20{fill:url(#SVGID_20_);}
	.st21{filter:url(#Adobe_OpacityMaskFilter_2_);}
	.st22{filter:url(#Adobe_OpacityMaskFilter_3_);}
	.st23{mask:url(#SVGID_21_);fill:url(#SVGID_22_);}
	.st24{fill:url(#SVGID_23_);}
	.st25{filter:url(#Adobe_OpacityMaskFilter_4_);}
	.st26{filter:url(#Adobe_OpacityMaskFilter_5_);}
	.st27{mask:url(#SVGID_24_);fill:url(#SVGID_25_);}
	.st28{fill:url(#SVGID_26_);}
	.st29{opacity:0.15;}
	.st30{fill:#FFFFFF;}
	.st31{fill:url(#SVGID_27_);}
	.st32{fill:url(#SVGID_28_);}
	.st33{filter:url(#Adobe_OpacityMaskFilter_6_);}
	.st34{filter:url(#Adobe_OpacityMaskFilter_7_);}
	.st35{mask:url(#SVGID_29_);fill:url(#SVGID_30_);}
	.st36{fill:url(#SVGID_31_);}
	.st37{filter:url(#Adobe_OpacityMaskFilter_8_);}
	.st38{filter:url(#Adobe_OpacityMaskFilter_9_);}
	.st39{mask:url(#SVGID_32_);fill:url(#SVGID_33_);}
	.st40{fill:url(#SVGID_34_);}
	.st41{fill:url(#SVGID_35_);}
	.st42{filter:url(#Adobe_OpacityMaskFilter_10_);}
	.st43{filter:url(#Adobe_OpacityMaskFilter_11_);}
	.st44{mask:url(#SVGID_36_);fill:url(#SVGID_37_);}
	.st45{fill:url(#SVGID_38_);}
	.st46{fill:url(#SVGID_39_);}
	.st47{fill:#9256A2;}
	.st48{fill:#6F4C9E;}
	.st49{fill:url(#SVGID_40_);}
	.st50{fill:url(#SVGID_41_);}
</style>
<g>
	<linearGradient id="SVGID_1_" gradientUnits="userSpaceOnUse" x1="297.8375" y1="268.1859" x2="206.0857" y2="184.8517">
		<stop  offset="5.586590e-03" style="stop-color:#9178B7"/>
		<stop  offset="0.5268" style="stop-color:#9D5FA7"/>
		<stop  offset="1" style="stop-color:#A5459A"/>
	</linearGradient>
	<polygon class="st0" points="276.9,94.5 168.4,249.4 245.8,375.6 312.3,250.2 	"/>
	<linearGradient id="SVGID_2_" gradientUnits="userSpaceOnUse" x1="171.0118" y1="227.867" x2="273.9171" y2="5.6426">
		<stop  offset="5.586590e-03" style="stop-color:#7A62AA"/>
		<stop  offset="0.6729" style="stop-color:#B77AB4"/>
		<stop  offset="1" style="stop-color:#D286B9"/>
	</linearGradient>
	<polygon class="st1" points="205.2,58.7 168.4,249.4 276.9,94.5 292.3,46.1 275.9,0 	"/>
	<linearGradient id="SVGID_3_" gradientUnits="userSpaceOnUse" x1="276.9389" y1="172.3499" x2="358.5895" y2="172.3499">
		<stop  offset="5.586590e-03" style="stop-color:#8060A9"/>
		<stop  offset="0.5378" style="stop-color:#A25FA6"/>
		<stop  offset="1" style="stop-color:#BB5DA4"/>
	</linearGradient>
	<polygon class="st2" points="312.3,250.2 348.5,250 358.6,229.8 276.9,94.5 	"/>
	<linearGradient id="SVGID_4_" gradientUnits="userSpaceOnUse" x1="176.1941" y1="164.2908" x2="121.9006" y2="156.0836">
		<stop  offset="5.586590e-03" style="stop-color:#9D85BE"/>
		<stop  offset="0.4491" style="stop-color:#B786BC"/>
		<stop  offset="1" style="stop-color:#D286B9"/>
	</linearGradient>
	<polygon class="st3" points="105.4,215.3 205.2,58.7 168.4,249.4 124.4,266.4 	"/>
	<linearGradient id="SVGID_5_" gradientUnits="userSpaceOnUse" x1="123.7387" y1="333.6522" x2="245.7942" y2="333.6522">
		<stop  offset="5.586590e-03" style="stop-color:#9178B7"/>
		<stop  offset="0.5268" style="stop-color:#9D5FA7"/>
		<stop  offset="1" style="stop-color:#A5459A"/>
	</linearGradient>
	<polygon class="st4" points="226,417.9 245.8,375.6 168.4,249.4 124.4,266.4 123.7,384.5 	"/>
	<linearGradient id="SVGID_6_" gradientUnits="userSpaceOnUse" x1="108.0383" y1="337.2834" x2="121.296" y2="261.5251">
		<stop  offset="5.586590e-03" style="stop-color:#561F5D"/>
		<stop  offset="0.5902" style="stop-color:#833C81"/>
		<stop  offset="1" style="stop-color:#A4529F"/>
	</linearGradient>
	<polygon class="st5" points="105.4,215.3 123.7,384.5 124.4,266.4 	"/>
	<linearGradient id="SVGID_7_" gradientUnits="userSpaceOnUse" x1="186.0699" y1="449.5192" x2="209.4287" y2="434.9989">
		<stop  offset="5.586590e-03" style="stop-color:#43154E"/>
		<stop  offset="0.628" style="stop-color:#672577"/>
		<stop  offset="1" style="stop-color:#7A2E91"/>
	</linearGradient>
	<polygon class="st6" points="226,417.9 252.5,512 123.7,384.5 	"/>
	<linearGradient id="SVGID_8_" gradientUnits="userSpaceOnUse" x1="261.7707" y1="507.3152" x2="244.0938" y2="416.4051">
		<stop  offset="5.586590e-03" style="stop-color:#684A9E"/>
		<stop  offset="0.3677" style="stop-color:#7A4098"/>
		<stop  offset="1" style="stop-color:#932A90"/>
	</linearGradient>
	<polygon class="st7" points="272.1,465.9 226,417.9 252.5,512 	"/>
	<linearGradient id="SVGID_9_" gradientUnits="userSpaceOnUse" x1="314.0725" y1="272.4549" x2="313.2307" y2="419.7626">
		<stop  offset="5.586590e-03" style="stop-color:#684A9E"/>
		<stop  offset="0.3677" style="stop-color:#7A4098"/>
		<stop  offset="1" style="stop-color:#932A90"/>
	</linearGradient>
	<polygon class="st8" points="400.9,344.7 272.1,465.9 259.9,453.2 258.1,451.3 226,417.9 245.4,374.7 312.3,250.2 348.5,250 
		384.6,315.2 386.9,319.4 	"/>
	<linearGradient id="SVGID_10_" gradientUnits="userSpaceOnUse" x1="349.5782" y1="457.3775" x2="316.7495" y2="415.7103">
		<stop  offset="5.586590e-03" style="stop-color:#43154E"/>
		<stop  offset="0.628" style="stop-color:#672577"/>
		<stop  offset="1" style="stop-color:#7A2E91"/>
	</linearGradient>
	<polygon class="st9" points="252.5,512 366.2,419.8 400.9,344.7 272.1,465.9 	"/>
	<linearGradient id="SVGID_11_" gradientUnits="userSpaceOnUse" x1="421.2811" y1="324.7391" x2="352.4673" y2="214.8894">
		<stop  offset="5.586590e-03" style="stop-color:#8060A9"/>
		<stop  offset="0.5378" style="stop-color:#A25FA6"/>
		<stop  offset="1" style="stop-color:#BB5DA4"/>
	</linearGradient>
	<polygon class="st10" points="348.5,250 358.6,229.8 406.6,248.7 400.9,344.7 	"/>
	<linearGradient id="SVGID_12_" gradientUnits="userSpaceOnUse" x1="276.9389" y1="171.6133" x2="406.5696" y2="171.6133">
		<stop  offset="5.586590e-03" style="stop-color:#8060A9"/>
		<stop  offset="0.5378" style="stop-color:#A25FA6"/>
		<stop  offset="1" style="stop-color:#BB5DA4"/>
	</linearGradient>
	<polygon class="st11" points="276.9,94.5 365.5,134.5 406.6,248.7 358.6,229.8 	"/>
	<linearGradient id="SVGID_13_" gradientUnits="userSpaceOnUse" x1="276.9389" y1="90.2785" x2="365.5342" y2="90.2785">
		<stop  offset="5.586590e-03" style="stop-color:#8060A9"/>
		<stop  offset="0.5378" style="stop-color:#A25FA6"/>
		<stop  offset="1" style="stop-color:#BB5DA4"/>
	</linearGradient>
	<polygon class="st12" points="292.3,46.1 354.8,85.9 365.5,134.5 276.9,94.5 	"/>
	<linearGradient id="SVGID_14_" gradientUnits="userSpaceOnUse" x1="275.8868" y1="42.9297" x2="354.802" y2="42.9297">
		<stop  offset="5.586590e-03" style="stop-color:#D9C8E2"/>
		<stop  offset="1" style="stop-color:#E9B9D6"/>
	</linearGradient>
	<polygon class="st13" points="275.9,0 354.8,85.9 292.3,46.1 	"/>
	<linearGradient id="SVGID_15_" gradientUnits="userSpaceOnUse" x1="337.5261" y1="221.3007" x2="334.6068" y2="247.4923">
		<stop  offset="5.586590e-03" style="stop-color:#561F5D"/>
		<stop  offset="0.5902" style="stop-color:#833C81"/>
		<stop  offset="1" style="stop-color:#A4529F"/>
	</linearGradient>
	<polygon class="st14" points="312.3,250.2 324.1,217 326.9,215.3 358.6,229.8 348.5,250 	"/>
	<linearGradient id="SVGID_16_" gradientUnits="userSpaceOnUse" x1="322.4345" y1="235.7385" x2="346.3194" y2="225.3218">
		<stop  offset="1.117320e-02" style="stop-color:#3E1E5C"/>
		<stop  offset="0.5119" style="stop-color:#632475"/>
		<stop  offset="1" style="stop-color:#852990"/>
	</linearGradient>
	<polygon class="st15" points="312.3,250.2 319.7,211.5 324.2,209.4 358.6,229.8 348.5,250 	"/>
	<linearGradient id="SVGID_17_" gradientUnits="userSpaceOnUse" x1="318.626" y1="119.1992" x2="306.5055" y2="227.9462">
		<stop  offset="5.586590e-03" style="stop-color:#8060A9"/>
		<stop  offset="0.5378" style="stop-color:#A25FA6"/>
		<stop  offset="1" style="stop-color:#BB5DA4"/>
	</linearGradient>
	<polygon class="st16" points="348.5,250 326.9,215.3 325.9,213.3 276.9,94.5 312.3,250.2 	"/>
	<defs>
		<filter id="Adobe_OpacityMaskFilter" filterUnits="userSpaceOnUse" x="245.4" y="94.5" width="66.9" height="280.2">
			<feFlood  style="flood-color:white;flood-opacity:1" result="back"/>
			<feBlend  in="SourceGraphic" in2="back" mode="normal"/>
		</filter>
	</defs>
	<mask maskUnits="userSpaceOnUse" x="245.4" y="94.5" width="66.9" height="280.2" id="SVGID_18_">
		<g class="st17">
			<defs>
				<filter id="Adobe_OpacityMaskFilter_1_" filterUnits="userSpaceOnUse" x="245.4" y="94.5" width="66.9" height="280.2">
					<feFlood  style="flood-color:white;flood-opacity:1" result="back"/>
					<feBlend  in="SourceGraphic" in2="back" mode="normal"/>
				</filter>
			</defs>
			<mask maskUnits="userSpaceOnUse" x="245.4" y="94.5" width="66.9" height="280.2" id="SVGID_18_">
			</mask>
			<linearGradient id="SVGID_19_" gradientUnits="userSpaceOnUse" x1="245.3994" y1="234.5874" x2="312.2929" y2="234.5874">
				<stop  offset="0.4274" style="stop-color:#000000"/>
				<stop  offset="0.7091" style="stop-color:#858585"/>
				<stop  offset="0.9097" style="stop-color:#DCDCDC"/>
				<stop  offset="1" style="stop-color:#FFFFFF"/>
			</linearGradient>
			<polygon class="st19" points="245.4,374.7 276.9,94.5 312.3,250.2 			"/>
		</g>
	</mask>
	<linearGradient id="SVGID_20_" gradientUnits="userSpaceOnUse" x1="245.3994" y1="234.5874" x2="312.2929" y2="234.5874">
		<stop  offset="0.4274" style="stop-color:#9178B7"/>
		<stop  offset="0.764" style="stop-color:#BD93C3"/>
		<stop  offset="1" style="stop-color:#DAA7CD"/>
	</linearGradient>
	<polygon class="st20" points="245.4,374.7 276.9,94.5 312.3,250.2 	"/>
	<defs>
		<filter id="Adobe_OpacityMaskFilter_2_" filterUnits="userSpaceOnUse" x="276.9" y="94.5" width="81.7" height="155.7">
			<feFlood  style="flood-color:white;flood-opacity:1" result="back"/>
			<feBlend  in="SourceGraphic" in2="back" mode="normal"/>
		</filter>
	</defs>
	<mask maskUnits="userSpaceOnUse" x="276.9" y="94.5" width="81.7" height="155.7" id="SVGID_21_">
		<g class="st21">
			<defs>
				<filter id="Adobe_OpacityMaskFilter_3_" filterUnits="userSpaceOnUse" x="276.9" y="94.5" width="81.7" height="155.7">
					<feFlood  style="flood-color:white;flood-opacity:1" result="back"/>
					<feBlend  in="SourceGraphic" in2="back" mode="normal"/>
				</filter>
			</defs>
			<mask maskUnits="userSpaceOnUse" x="276.9" y="94.5" width="81.7" height="155.7" id="SVGID_21_">
			</mask>
			<linearGradient id="SVGID_22_" gradientUnits="userSpaceOnUse" x1="329.2027" y1="167.4355" x2="298.8994" y2="176.2739">
				<stop  offset="0.4274" style="stop-color:#000000"/>
				<stop  offset="0.7091" style="stop-color:#858585"/>
				<stop  offset="0.9097" style="stop-color:#DCDCDC"/>
				<stop  offset="1" style="stop-color:#FFFFFF"/>
			</linearGradient>
			<polygon class="st23" points="276.9,94.5 312.3,250.2 348.5,250 358.6,229.8 			"/>
		</g>
	</mask>
	<linearGradient id="SVGID_23_" gradientUnits="userSpaceOnUse" x1="329.2027" y1="167.4355" x2="298.8994" y2="176.2739">
		<stop  offset="0.4274" style="stop-color:#9178B7"/>
		<stop  offset="0.764" style="stop-color:#BD93C3"/>
		<stop  offset="1" style="stop-color:#DAA7CD"/>
	</linearGradient>
	<polygon class="st24" points="276.9,94.5 312.3,250.2 348.5,250 358.6,229.8 	"/>
	<defs>
		<filter id="Adobe_OpacityMaskFilter_4_" filterUnits="userSpaceOnUse" x="226" y="417.9" width="46.1" height="94.1">
			<feFlood  style="flood-color:white;flood-opacity:1" result="back"/>
			<feBlend  in="SourceGraphic" in2="back" mode="normal"/>
		</filter>
	</defs>
	<mask maskUnits="userSpaceOnUse" x="226" y="417.9" width="46.1" height="94.1" id="SVGID_24_">
		<g class="st25">
			<defs>
				<filter id="Adobe_OpacityMaskFilter_5_" filterUnits="userSpaceOnUse" x="226" y="417.9" width="46.1" height="94.1">
					<feFlood  style="flood-color:white;flood-opacity:1" result="back"/>
					<feBlend  in="SourceGraphic" in2="back" mode="normal"/>
				</filter>
			</defs>
			<mask maskUnits="userSpaceOnUse" x="226" y="417.9" width="46.1" height="94.1" id="SVGID_24_">
			</mask>
			<linearGradient id="SVGID_25_" gradientUnits="userSpaceOnUse" x1="238.9673" y1="465.3707" x2="253.172" y2="446.4311">
				<stop  offset="0.4274" style="stop-color:#000000"/>
				<stop  offset="0.7091" style="stop-color:#858585"/>
				<stop  offset="0.9097" style="stop-color:#DCDCDC"/>
				<stop  offset="1" style="stop-color:#FFFFFF"/>
			</linearGradient>
			<polygon class="st27" points="226,417.9 272.1,465.9 252.5,512 			"/>
		</g>
	</mask>
	<linearGradient id="SVGID_26_" gradientUnits="userSpaceOnUse" x1="238.9673" y1="465.3707" x2="253.172" y2="446.4311">
		<stop  offset="0.4274" style="stop-color:#9178B7"/>
		<stop  offset="0.764" style="stop-color:#BD93C3"/>
		<stop  offset="1" style="stop-color:#DAA7CD"/>
	</linearGradient>
	<polygon class="st28" points="226,417.9 272.1,465.9 252.5,512 	"/>
	<g class="st29">
		<polygon class="st30" points="368.4,285.9 231.1,423.2 226,417.9 238,391.2 353.6,259.2 		"/>
		<polygon class="st30" points="406.6,248.7 406.5,250 376.9,279.6 372.6,267.9 395,244.2 		"/>
		<polygon class="st30" points="405.3,269.4 404.8,278.6 383.4,297.2 381.1,291 		"/>
		<polygon class="st30" points="403.8,295 403.3,303.5 390.6,316.8 388.9,312.1 		"/>
		<polygon class="st30" points="373.2,294.7 241.2,433.8 239.4,431.9 370.9,290.5 		"/>
		<polygon class="st30" points="386.9,319.4 259.9,453.2 258.1,451.3 384.6,315.2 		"/>
		<polygon class="st30" points="338.1,250.1 270.6,327.8 270.6,327.8 261,345.7 338.7,250.1 		"/>
	</g>
	<linearGradient id="SVGID_27_" gradientUnits="userSpaceOnUse" x1="382.3027" y1="251.4924" x2="368.4136" y2="335.1424">
		<stop  offset="5.586590e-03" style="stop-color:#561F5D"/>
		<stop  offset="0.5902" style="stop-color:#833C81"/>
		<stop  offset="1" style="stop-color:#A4529F"/>
	</linearGradient>
	<polygon class="st31" points="400.9,344.7 358.6,229.8 348.5,250 	"/>
	<linearGradient id="SVGID_28_" gradientUnits="userSpaceOnUse" x1="370.2251" y1="241.7571" x2="355.1447" y2="332.5819">
		<stop  offset="5.586590e-03" style="stop-color:#2E1133"/>
		<stop  offset="0.1163" style="stop-color:#301135"/>
		<stop  offset="1" style="stop-color:#3D1045"/>
	</linearGradient>
	<polygon class="st32" points="326.9,215.3 354.7,237.8 400.9,344.7 348.7,246.8 	"/>
	<defs>
		<filter id="Adobe_OpacityMaskFilter_6_" filterUnits="userSpaceOnUse" x="245.4" y="198.2" width="66.9" height="176.5">
			<feFlood  style="flood-color:white;flood-opacity:1" result="back"/>
			<feBlend  in="SourceGraphic" in2="back" mode="normal"/>
		</filter>
	</defs>
	<mask maskUnits="userSpaceOnUse" x="245.4" y="198.2" width="66.9" height="176.5" id="SVGID_29_">
		<g class="st33">
			<defs>
				<filter id="Adobe_OpacityMaskFilter_7_" filterUnits="userSpaceOnUse" x="245.4" y="198.2" width="66.9" height="176.5">
					<feFlood  style="flood-color:white;flood-opacity:1" result="back"/>
					<feBlend  in="SourceGraphic" in2="back" mode="normal"/>
				</filter>
			</defs>
			<mask maskUnits="userSpaceOnUse" x="245.4" y="198.2" width="66.9" height="176.5" id="SVGID_29_">
			</mask>
			<linearGradient id="SVGID_30_" gradientUnits="userSpaceOnUse" x1="292.959" y1="294.7066" x2="260.9724" y2="281.6595">
				<stop  offset="0" style="stop-color:#FFFFFF"/>
				<stop  offset="9.030356e-02" style="stop-color:#DCDCDC"/>
				<stop  offset="0.2909" style="stop-color:#858585"/>
				<stop  offset="0.5726" style="stop-color:#000000"/>
			</linearGradient>
			<polygon class="st35" points="245.4,374.7 312.3,250.2 300.1,198.2 			"/>
		</g>
	</mask>
	<linearGradient id="SVGID_31_" gradientUnits="userSpaceOnUse" x1="292.959" y1="294.7066" x2="260.9724" y2="281.6595">
		<stop  offset="0" style="stop-color:#DAA7CD"/>
		<stop  offset="0.236" style="stop-color:#BD93C3"/>
		<stop  offset="0.5726" style="stop-color:#9178B7"/>
	</linearGradient>
	<polygon class="st36" points="245.4,374.7 312.3,250.2 300.1,198.2 	"/>
	<defs>
		<filter id="Adobe_OpacityMaskFilter_8_" filterUnits="userSpaceOnUse" x="168.4" y="94.5" width="125" height="154.9">
			<feFlood  style="flood-color:white;flood-opacity:1" result="back"/>
			<feBlend  in="SourceGraphic" in2="back" mode="normal"/>
		</filter>
	</defs>
	<mask maskUnits="userSpaceOnUse" x="168.4" y="94.5" width="125" height="154.9" id="SVGID_32_">
		<g class="st37">
			<defs>
				<filter id="Adobe_OpacityMaskFilter_9_" filterUnits="userSpaceOnUse" x="168.4" y="94.5" width="125" height="154.9">
					<feFlood  style="flood-color:white;flood-opacity:1" result="back"/>
					<feBlend  in="SourceGraphic" in2="back" mode="normal"/>
				</filter>
			</defs>
			<mask maskUnits="userSpaceOnUse" x="168.4" y="94.5" width="125" height="154.9" id="SVGID_32_">
			</mask>
			<linearGradient id="SVGID_33_" gradientUnits="userSpaceOnUse" x1="209.1076" y1="146.3249" x2="238.1484" y2="201.2498">
				<stop  offset="0" style="stop-color:#FFFFFF"/>
				<stop  offset="9.030356e-02" style="stop-color:#DCDCDC"/>
				<stop  offset="0.2909" style="stop-color:#858585"/>
				<stop  offset="0.5726" style="stop-color:#000000"/>
			</linearGradient>
			<polygon class="st39" points="168.4,249.4 293.4,162.2 276.9,94.5 			"/>
		</g>
	</mask>
	<linearGradient id="SVGID_34_" gradientUnits="userSpaceOnUse" x1="209.1076" y1="146.3249" x2="238.1484" y2="201.2498">
		<stop  offset="0" style="stop-color:#DAA7CD"/>
		<stop  offset="0.236" style="stop-color:#BD93C3"/>
		<stop  offset="0.5726" style="stop-color:#9178B7"/>
	</linearGradient>
	<polygon class="st40" points="168.4,249.4 293.4,162.2 276.9,94.5 	"/>
	<linearGradient id="SVGID_35_" gradientUnits="userSpaceOnUse" x1="276.0622" y1="170.4366" x2="312.1701" y2="170.4366">
		<stop  offset="5.586590e-03" style="stop-color:#A24E9E"/>
		<stop  offset="4.065163e-02" style="stop-color:#AB65A9"/>
		<stop  offset="0.1063" style="stop-color:#BC88BC"/>
		<stop  offset="0.1739" style="stop-color:#CDA8CF"/>
		<stop  offset="0.2425" style="stop-color:#DCC5E0"/>
		<stop  offset="0.3122" style="stop-color:#E9DCED"/>
		<stop  offset="0.3836" style="stop-color:#F4EDF6"/>
		<stop  offset="0.4578" style="stop-color:#FBF9FC"/>
		<stop  offset="0.5391" style="stop-color:#FFFFFF"/>
		<stop  offset="1" style="stop-color:#FFFFFF"/>
	</linearGradient>
	<path class="st41" d="M276.9,94.5l35.2,150.8c0.1,0.5-0.2,0.9-0.7,1.1c-0.5,0.1-0.9-0.2-1.1-0.7c0,0,0,0,0,0L276.9,94.5z"/>
	<defs>
		<filter id="Adobe_OpacityMaskFilter_10_" filterUnits="userSpaceOnUse" x="358.6" y="229.8" width="48" height="114.9">
			<feFlood  style="flood-color:white;flood-opacity:1" result="back"/>
			<feBlend  in="SourceGraphic" in2="back" mode="normal"/>
		</filter>
	</defs>
	<mask maskUnits="userSpaceOnUse" x="358.6" y="229.8" width="48" height="114.9" id="SVGID_36_">
		<g class="st42">
			<defs>
				<filter id="Adobe_OpacityMaskFilter_11_" filterUnits="userSpaceOnUse" x="358.6" y="229.8" width="48" height="114.9">
					<feFlood  style="flood-color:white;flood-opacity:1" result="back"/>
					<feBlend  in="SourceGraphic" in2="back" mode="normal"/>
				</filter>
			</defs>
			<mask maskUnits="userSpaceOnUse" x="358.6" y="229.8" width="48" height="114.9" id="SVGID_36_">
			</mask>
			<linearGradient id="SVGID_37_" gradientUnits="userSpaceOnUse" x1="375.5094" y1="243.3481" x2="416.4069" y2="320.6978">
				<stop  offset="0" style="stop-color:#FFFFFF"/>
				<stop  offset="9.030356e-02" style="stop-color:#DCDCDC"/>
				<stop  offset="0.2909" style="stop-color:#858585"/>
				<stop  offset="0.5726" style="stop-color:#000000"/>
			</linearGradient>
			<polygon class="st44" points="406.6,248.7 406.5,250 405.3,269.4 404.8,278.6 403.8,295 403.3,303.5 400.9,344.7 390.6,316.8 
				388.9,312.1 383.4,297.2 381.1,291 376.9,279.6 372.6,267.9 358.6,229.8 395,244.2 			"/>
		</g>
	</mask>
	<linearGradient id="SVGID_38_" gradientUnits="userSpaceOnUse" x1="375.5094" y1="243.3481" x2="416.4069" y2="320.6978">
		<stop  offset="0" style="stop-color:#DAA7CD"/>
		<stop  offset="0.236" style="stop-color:#BD93C3"/>
		<stop  offset="0.5726" style="stop-color:#9178B7"/>
	</linearGradient>
	<polygon class="st45" points="406.6,248.7 406.5,250 405.3,269.4 404.8,278.6 403.8,295 403.3,303.5 400.9,344.7 390.6,316.8 
		388.9,312.1 383.4,297.2 381.1,291 376.9,279.6 372.6,267.9 358.6,229.8 395,244.2 	"/>
	<linearGradient id="SVGID_39_" gradientUnits="userSpaceOnUse" x1="308.6295" y1="250.3372" x2="315.259" y2="248.4693">
		<stop  offset="5.586590e-03" style="stop-color:#A24E9E"/>
		<stop  offset="4.065163e-02" style="stop-color:#AB65A9"/>
		<stop  offset="0.1063" style="stop-color:#BC88BC"/>
		<stop  offset="0.1739" style="stop-color:#CDA8CF"/>
		<stop  offset="0.2425" style="stop-color:#DCC5E0"/>
		<stop  offset="0.3122" style="stop-color:#E9DCED"/>
		<stop  offset="0.3836" style="stop-color:#F4EDF6"/>
		<stop  offset="0.4578" style="stop-color:#FBF9FC"/>
		<stop  offset="0.5391" style="stop-color:#FFFFFF"/>
		<stop  offset="0.5923" style="stop-color:#F7F3F9"/>
		<stop  offset="0.6768" style="stop-color:#E9DEED"/>
		<stop  offset="0.782" style="stop-color:#D6BCDB"/>
		<stop  offset="0.9025" style="stop-color:#BF91C2"/>
		<stop  offset="1" style="stop-color:#AD6FAF"/>
	</linearGradient>
	<polygon class="st46" points="312.1,245.2 315.9,250.2 310.2,254.1 310.4,245.7 	"/>
	<path class="st30" d="M315.9,250.2c5.4-0.2,10.9-0.2,16.3-0.3c5.4,0,10.9,0,16.3,0.1c-5.4,0.2-10.9,0.2-16.3,0.3
		C326.7,250.3,321.3,250.4,315.9,250.2z"/>
</g>
</svg>
