<?xml version="1.0" encoding="utf-8"?>
<!-- Generator: Adobe Illustrator 24.0.2, SVG Export Plug-In . SVG Version: 6.00 Build 0)  -->
<svg version="1.1" id="Ñëîé_1" xmlns="http://www.w3.org/2000/svg" xmlns:xlink="http://www.w3.org/1999/xlink" x="0px" y="0px"
	 viewBox="0 0 512 512" style="enable-background:new 0 0 512 512;" xml:space="preserve">
<style type="text/css">
	.st0{fill:url(#SVGID_1_);}
	.st1{fill:url(#SVGID_2_);}
	.st2{fill:url(#SVGID_3_);}
	.st3{fill:url(#SVGID_4_);}
	.st4{fill:url(#SVGID_5_);}
	.st5{opacity:0.1;fill:#EEFF80;}
	.st6{opacity:0.35;fill:#EEFF80;}
	.st7{fill:#A2D4AB;}
	.st8{opacity:0.35;fill:#FFFFFF;}
	.st9{opacity:0.35;fill:url(#SVGID_6_);}
	.st10{opacity:0.5;fill:#A2D4AB;}
	.st11{opacity:0.5;fill:#E4F9E5;}
	.st12{opacity:0.75;fill:#FFFFFF;}
	.st13{fill:url(#SVGID_7_);}
	.st14{fill:url(#SVGID_8_);}
	.st15{filter:url(#Adobe_OpacityMaskFilter);}
	.st16{filter:url(#Adobe_OpacityMaskFilter_1_);}
	.st17{mask:url(#SVGID_9_);fill:url(#SVGID_10_);}
	.st18{fill:url(#SVGID_11_);}
	.st19{fill:url(#SVGID_12_);}
	.st20{fill:url(#SVGID_13_);}
	.st21{fill:url(#SVGID_14_);}
	.st22{fill:url(#SVGID_15_);}
	.st23{fill:url(#SVGID_16_);}
	.st24{opacity:0.2;fill:#FAFFBF;}
	.st25{opacity:0.25;fill:#FFFFD7;}
	.st26{opacity:0.35;fill:#FFFFD7;}
	.st27{opacity:0.35;fill:url(#SVGID_17_);}
	.st28{opacity:0.5;fill:url(#SVGID_18_);}
	.st29{opacity:0.5;fill:#FFFFFF;}
	.st30{opacity:0.5;fill:url(#SVGID_19_);}
	.st31{fill:url(#SVGID_20_);}
	.st32{fill:url(#SVGID_21_);}
	.st33{filter:url(#Adobe_OpacityMaskFilter_2_);}
	.st34{filter:url(#Adobe_OpacityMaskFilter_3_);}
	.st35{mask:url(#SVGID_22_);fill:url(#SVGID_23_);}
	.st36{fill:url(#SVGID_24_);}
	.st37{opacity:0.57;}
	.st38{opacity:0.15;fill:url(#SVGID_25_);}
	.st39{opacity:0.5;fill:url(#SVGID_26_);}
	.st40{fill:url(#SVGID_27_);}
	.st41{fill:url(#SVGID_28_);}
	.st42{fill:url(#SVGID_29_);}
	.st43{fill:url(#SVGID_30_);}
	.st44{fill:url(#SVGID_31_);}
	.st45{fill:url(#SVGID_32_);}
	.st46{fill:url(#SVGID_33_);}
	.st47{opacity:0.2;fill:url(#SVGID_34_);}
	.st48{opacity:0.5;fill:url(#SVGID_35_);}
	.st49{fill:url(#SVGID_36_);}
	.st50{fill:url(#SVGID_37_);}
	.st51{fill:url(#SVGID_38_);}
	.st52{fill:url(#SVGID_39_);}
	.st53{fill:#1A976D;}
	.st54{fill:#CCDDD7;}
	.st55{fill:#76D59D;}
	.st56{fill:#5BB382;}
	.st57{fill:#93F9B9;}
	.st58{fill:#167553;}
	.st59{fill:#105138;}
</style>
<linearGradient id="SVGID_1_" gradientUnits="userSpaceOnUse" x1="24.6296" y1="363.2134" x2="106.7969" y2="211.629" gradientTransform="matrix(0.9805 -0.1966 0.1966 0.9805 171.0353 -99.4435)">
	<stop  offset="0" style="stop-color:#1A976D"/>
	<stop  offset="1" style="stop-color:#93F9B9"/>
</linearGradient>
<polygon class="st0" points="110.1,0 193.8,179.1 291,285 424.3,370.1 469,354.5 389.9,190.6 145.8,1.5 "/>
<linearGradient id="SVGID_2_" gradientUnits="userSpaceOnUse" x1="-41.7006" y1="420.0484" x2="-33.0656" y2="556.5894" gradientTransform="matrix(0.9805 -0.1966 0.1966 0.9805 171.0353 -99.4435)">
	<stop  offset="0" style="stop-color:#167553"/>
	<stop  offset="1" style="stop-color:#105138"/>
</linearGradient>
<polygon class="st1" points="155.2,476.4 193.8,179.1 291,285 362.5,510.2 "/>
<linearGradient id="SVGID_3_" gradientUnits="userSpaceOnUse" x1="-84.1755" y1="235.8388" x2="-124.617" y2="423.5285" gradientTransform="matrix(0.9805 -0.1966 0.1966 0.9805 171.0353 -99.4435)">
	<stop  offset="0" style="stop-color:#A2D4AB"/>
	<stop  offset="1" style="stop-color:#105138"/>
</linearGradient>
<polygon class="st2" points="110.1,0 76.7,61.7 119.4,411.4 155.2,476.4 193.8,179.1 "/>
<linearGradient id="SVGID_4_" gradientUnits="userSpaceOnUse" x1="96.2097" y1="489.5146" x2="88.8" y2="578.9597" gradientTransform="matrix(0.9805 -0.1966 0.1966 0.9805 171.0353 -99.4435)">
	<stop  offset="0" style="stop-color:#167553"/>
	<stop  offset="1" style="stop-color:#105138"/>
</linearGradient>
<polygon class="st3" points="424.3,370.1 419.5,512 362.5,510.2 291,285 "/>
<linearGradient id="SVGID_5_" gradientUnits="userSpaceOnUse" x1="170.1512" y1="525.5361" x2="157.0063" y2="620.2564" gradientTransform="matrix(0.9805 -0.1966 0.1966 0.9805 171.0353 -99.4435)">
	<stop  offset="0" style="stop-color:#1A976D"/>
	<stop  offset="1" style="stop-color:#105138"/>
</linearGradient>
<polygon class="st4" points="469,354.5 455.6,507.1 419.5,512 424.3,370.1 "/>
<polygon class="st5" points="150.3,40.4 219.7,187.5 300.9,274.3 412.6,343.9 450.3,331 384.6,196.4 180.3,41.6 "/>
<polygon class="st6" points="424.3,370.1 412.6,343.9 450.3,331 469,354.5 "/>
<polygon class="st7" points="424.3,370.1 412.6,343.9 300.9,274.3 291,285 "/>
<polygon class="st7" points="291,285 300.9,274.3 219.7,187.5 193.8,179.1 "/>
<polygon class="st7" points="219.7,187.5 150.3,40.4 110.1,0 193.8,179.1 "/>
<polygon class="st8" points="150.3,40.4 110.1,0 145.8,1.5 180.3,41.6 "/>
<linearGradient id="SVGID_6_" gradientUnits="userSpaceOnUse" x1="129.9528" y1="346.7059" x2="1.5679" y2="109.163" gradientTransform="matrix(0.9805 -0.1966 0.1966 0.9805 171.0353 -99.4435)">
	<stop  offset="5.586590e-03" style="stop-color:#D4FFB7"/>
	<stop  offset="1" style="stop-color:#FBFFEF"/>
</linearGradient>
<polygon class="st9" points="180.3,41.6 384.6,196.4 389.9,190.6 145.8,1.5 "/>
<polygon class="st10" points="384.6,196.4 219.7,187.5 150.3,40.4 180.3,41.6 "/>
<polygon class="st11" points="300.9,274.3 384.6,196.4 219.7,187.5 "/>
<polygon class="st10" points="450.3,331 384.6,196.4 300.9,274.3 412.6,343.9 "/>
<path class="st12" d="M300.9,274.3c13.5-13.2,27.2-26.3,41-39.4c13.7-13.1,40-37.6,40-37.6c-13.8-0.7-24.8-1.4-38.5-2.1l-41.2-2.4
	c-27.5-1.7-54.9-3.4-82.4-5.3c27.6,1,55.1,2.3,82.6,3.6l41.3,2.1c13.7,0.7,41.1,3.2,41.1,3.2s-26.7,26.5-41,39.4
	C329.5,248.7,315.3,261.5,300.9,274.3z"/>
<linearGradient id="SVGID_7_" gradientUnits="userSpaceOnUse" x1="378.0706" y1="405.3816" x2="379.6264" y2="500.8079">
	<stop  offset="0" style="stop-color:#105138"/>
	<stop  offset="0.5056" style="stop-color:#1A976D"/>
	<stop  offset="1" style="stop-color:#105138"/>
</linearGradient>
<polygon class="st13" points="362.5,510.2 332.7,416.2 423.5,397.1 419.5,512 "/>
<linearGradient id="SVGID_8_" gradientUnits="userSpaceOnUse" x1="285.1421" y1="385.7515" x2="241.5774" y2="486.3465">
	<stop  offset="0" style="stop-color:#105138"/>
	<stop  offset="0.5056" style="stop-color:#1A976D"/>
	<stop  offset="1" style="stop-color:#105138"/>
</linearGradient>
<polygon class="st14" points="362.5,510.2 332.7,416.2 173.2,341.1 155.2,476.4 "/>
<defs>
	<filter id="Adobe_OpacityMaskFilter" filterUnits="userSpaceOnUse" x="76.7" y="0" width="117.1" height="341.1">
		<feFlood  style="flood-color:white;flood-opacity:1" result="back"/>
		<feBlend  in="SourceGraphic" in2="back" mode="normal"/>
	</filter>
</defs>
<mask maskUnits="userSpaceOnUse" x="76.7" y="0" width="117.1" height="341.1" id="SVGID_9_">
	<g class="st15">
		<defs>
			<filter id="Adobe_OpacityMaskFilter_1_" filterUnits="userSpaceOnUse" x="76.7" y="0" width="117.1" height="341.1">
				<feFlood  style="flood-color:white;flood-opacity:1" result="back"/>
				<feBlend  in="SourceGraphic" in2="back" mode="normal"/>
			</filter>
		</defs>
		<mask maskUnits="userSpaceOnUse" x="76.7" y="0" width="117.1" height="341.1" id="SVGID_9_">
		</mask>
		<linearGradient id="SVGID_10_" gradientUnits="userSpaceOnUse" x1="199.1195" y1="30.1397" x2="103.5792" y2="250.7513">
			<stop  offset="0" style="stop-color:#FFFFFF"/>
			<stop  offset="1" style="stop-color:#262626"/>
		</linearGradient>
		<polygon class="st17" points="110.1,0 76.7,61.7 173.2,341.1 193.8,179.1 		"/>
	</g>
</mask>
<linearGradient id="SVGID_11_" gradientUnits="userSpaceOnUse" x1="199.1195" y1="30.1397" x2="103.5792" y2="250.7513">
	<stop  offset="0" style="stop-color:#EBFBDA"/>
	<stop  offset="1" style="stop-color:#167553"/>
</linearGradient>
<polygon class="st18" points="110.1,0 76.7,61.7 173.2,341.1 193.8,179.1 "/>
</svg>
