<?xml version="1.0" encoding="utf-8"?>
<!-- Generator: Adobe Illustrator 24.0.2, SVG Export Plug-In . SVG Version: 6.00 Build 0)  -->
<svg version="1.1" id="Layer_1" xmlns="http://www.w3.org/2000/svg" xmlns:xlink="http://www.w3.org/1999/xlink" x="0px" y="0px"
	 viewBox="0 0 512 512" style="enable-background:new 0 0 512 512;" xml:space="preserve">
<style type="text/css">
	.st0{fill:url(#SVGID_1_);}
	.st1{fill:url(#SVGID_2_);}
	.st2{fill:url(#SVGID_3_);}
	.st3{fill:url(#SVGID_4_);}
	.st4{fill:url(#SVGID_5_);}
	.st5{opacity:0.45;fill:url(#SVGID_6_);enable-background:new    ;}
	.st6{opacity:0.9;fill:url(#SVGID_7_);enable-background:new    ;}
	.st7{fill:url(#SVGID_8_);}
	.st8{opacity:0.8;fill:url(#SVGID_9_);enable-background:new    ;}
	.st9{fill:url(#SVGID_10_);}
	.st10{opacity:0.5;fill:url(#SVGID_11_);enable-background:new    ;}
	.st11{opacity:0.25;fill:url(#SVGID_12_);enable-background:new    ;}
	.st12{fill:url(#SVGID_13_);}
	.st13{fill:url(#SVGID_14_);}
	.st14{fill:url(#SVGID_15_);}
	.st15{fill:url(#SVGID_16_);}
	.st16{opacity:0.35;fill:url(#SVGID_17_);enable-background:new    ;}
	.st17{opacity:0.75;fill:url(#SVGID_18_);enable-background:new    ;}
	.st18{opacity:0.25;fill:url(#SVGID_19_);enable-background:new    ;}
	.st19{opacity:0.35;fill:url(#SVGID_20_);enable-background:new    ;}
	.st20{opacity:0.5;fill:url(#SVGID_21_);enable-background:new    ;}
	.st21{opacity:0.3;fill:url(#SVGID_22_);enable-background:new    ;}
	.st22{opacity:0.75;fill:url(#SVGID_23_);enable-background:new    ;}
	.st23{fill:#FFFFFF;}
	.st24{opacity:0.35;fill:url(#SVGID_24_);enable-background:new    ;}
	.st25{opacity:0.15;fill:url(#SVGID_25_);enable-background:new    ;}
	.st26{fill:url(#SVGID_26_);}
	.st27{opacity:0.25;fill:#FFFFFF;enable-background:new    ;}
	.st28{opacity:0.35;fill:url(#SVGID_27_);enable-background:new    ;}
</style>
<g>
	
		<linearGradient id="SVGID_1_" gradientUnits="userSpaceOnUse" x1="422.9952" y1="225.3188" x2="372.9149" y2="226.2637" gradientTransform="matrix(1 0 0 -1 0 513.5118)">
		<stop  offset="0" style="stop-color:#FFCA30"/>
		<stop  offset="1" style="stop-color:#F16B48"/>
	</linearGradient>
	<polygon class="st0" points="405.9,72.3 413,130 395.9,440.1 369.5,502.7 373.6,446.7 345.5,417.8 375.3,396.8 394.9,138.8 	"/>
	
		<linearGradient id="SVGID_2_" gradientUnits="userSpaceOnUse" x1="309.503" y1="500.2214" x2="247.951" y2="388.0598" gradientTransform="matrix(1 0 0 -1 0 513.5118)">
		<stop  offset="0" style="stop-color:#EDA847"/>
		<stop  offset="1" style="stop-color:#FDE493"/>
	</linearGradient>
	<polygon class="st1" points="405.9,72.3 396.2,131 394.9,138.8 365.1,160.8 345.4,175.4 158.4,197.6 117.1,162.7 99,115.8 
		145.6,38.6 243.3,1.2 335,12.9 347,23.1 381.9,52.2 	"/>
	
		<linearGradient id="SVGID_3_" gradientUnits="userSpaceOnUse" x1="343.2703" y1="234.5975" x2="420.5186" y2="41.8672" gradientTransform="matrix(1 0 0 -1 0 513.5118)">
		<stop  offset="0" style="stop-color:#EDA847"/>
		<stop  offset="1" style="stop-color:#F16B48"/>
	</linearGradient>
	<path class="st2" d="M296.3,411.3l-5.6,99.5l78.6-8.1l4.4-56.9c0,0-29.3-18.8,1.5-49.1L399.6,139l6.3-66.6l-11.2,66.4l-49.5,36.7
		L296.3,411.3z"/>
	
		<linearGradient id="SVGID_4_" gradientUnits="userSpaceOnUse" x1="365.7243" y1="252.0636" x2="302.2892" y2="-16.5052" gradientTransform="matrix(1 0 0 -1 0 513.5118)">
		<stop  offset="0" style="stop-color:#EDA847"/>
		<stop  offset="1" style="stop-color:#F16B48"/>
	</linearGradient>
	<path class="st3" d="M290.8,411.1l-2.2,97.2l75-6.8L366,446c0,0-28.7-18.9-0.1-48.1l15.2-251.9l-50.9,34.9L290.8,411.1z"/>
	
		<linearGradient id="SVGID_5_" gradientUnits="userSpaceOnUse" x1="202.1252" y1="274.3593" x2="186.2181" y2="111.3123" gradientTransform="matrix(1 0 0 -1 0 513.5118)">
		<stop  offset="0" style="stop-color:#EDA847"/>
		<stop  offset="1" style="stop-color:#F4742E"/>
	</linearGradient>
	<polygon class="st4" points="99,115.8 122.2,409.7 290.8,510.8 296.3,411.3 158.4,197.6 117.1,162.7 	"/>
	
		<linearGradient id="SVGID_6_" gradientUnits="userSpaceOnUse" x1="253.8909" y1="58.727" x2="245.5445" y2="329.9832" gradientTransform="matrix(1 0 0 -1 0 513.5118)">
		<stop  offset="0" style="stop-color:#F16B48"/>
		<stop  offset="1" style="stop-color:#F16B48"/>
	</linearGradient>
	<polygon class="st5" points="290.8,510.8 190.4,449.4 228.9,189.2 308.8,179.6 	"/>
	
		<linearGradient id="SVGID_7_" gradientUnits="userSpaceOnUse" x1="158.3813" y1="220.1577" x2="345.351" y2="220.1577" gradientTransform="matrix(1 0 0 -1 0 513.5118)">
		<stop  offset="0" style="stop-color:#FFEEA7"/>
		<stop  offset="1" style="stop-color:#FDE493"/>
	</linearGradient>
	<polygon class="st6" points="345.4,175.4 296.3,411.3 158.4,197.6 	"/>
	
		<linearGradient id="SVGID_8_" gradientUnits="userSpaceOnUse" x1="158.3813" y1="270.6605" x2="257.8926" y2="270.6605" gradientTransform="matrix(1 0 0 -1 0 513.5118)">
		<stop  offset="0" style="stop-color:#FFEEA7"/>
		<stop  offset="1" style="stop-color:#FDE493"/>
	</linearGradient>
	<polygon class="st7" points="158.4,197.6 257.9,186.7 224.1,299 	"/>
	
		<linearGradient id="SVGID_9_" gradientUnits="userSpaceOnUse" x1="224.1245" y1="187.1367" x2="316.9619" y2="187.1367" gradientTransform="matrix(1 0 0 -1 0 513.5118)">
		<stop  offset="0" style="stop-color:#FFEFAF"/>
		<stop  offset="1" style="stop-color:#FDE69D"/>
	</linearGradient>
	<polygon class="st8" points="224.1,299 242,241.5 317,312.4 296.3,411.3 	"/>
	
		<linearGradient id="SVGID_10_" gradientUnits="userSpaceOnUse" x1="257.8926" y1="306.8192" x2="345.351" y2="306.8192" gradientTransform="matrix(1 0 0 -1 0 513.5118)">
		<stop  offset="0" style="stop-color:#FFF4CB"/>
		<stop  offset="1" style="stop-color:#FFECB5"/>
	</linearGradient>
	<polygon class="st9" points="345.4,175.4 257.9,186.7 332,238 	"/>
	
		<linearGradient id="SVGID_11_" gradientUnits="userSpaceOnUse" x1="158.3813" y1="305.076" x2="345.351" y2="305.076" gradientTransform="matrix(1 0 0 -1 0 513.5118)">
		<stop  offset="0" style="stop-color:#FCF5DA"/>
		<stop  offset="1" style="stop-color:#FFF1CE"/>
	</linearGradient>
	<polygon class="st10" points="158.4,197.6 242,241.5 345.4,175.4 	"/>
	
		<linearGradient id="SVGID_12_" gradientUnits="userSpaceOnUse" x1="158.3813" y1="265.1819" x2="241.9548" y2="265.1819" gradientTransform="matrix(1 0 0 -1 0 513.5118)">
		<stop  offset="0" style="stop-color:#FCF5DA"/>
		<stop  offset="1" style="stop-color:#FFF1CE"/>
	</linearGradient>
	<polygon class="st11" points="158.4,197.6 242,241.5 224.1,299 	"/>
	
		<linearGradient id="SVGID_13_" gradientUnits="userSpaceOnUse" x1="99.0132" y1="362.8006" x2="248.2303" y2="362.8006" gradientTransform="matrix(1 0 0 -1 0 513.5118)">
		<stop  offset="0" style="stop-color:#EDA847"/>
		<stop  offset="1" style="stop-color:#FFEFBB"/>
	</linearGradient>
	<polygon class="st12" points="158.4,197.6 248.2,103.8 99,115.8 117.1,162.7 	"/>
	
		<linearGradient id="SVGID_14_" gradientUnits="userSpaceOnUse" x1="250.9358" y1="338.3094" x2="246.2185" y2="395.7034" gradientTransform="matrix(1 0 0 -1 0 513.5118)">
		<stop  offset="0" style="stop-color:#EDA847"/>
		<stop  offset="1" style="stop-color:#FDF3DA"/>
	</linearGradient>
	<polygon class="st13" points="345.4,175.4 248.2,103.8 158.4,197.6 	"/>
	
		<linearGradient id="SVGID_15_" gradientUnits="userSpaceOnUse" x1="103.9842" y1="388.995" x2="238.0218" y2="465.8514" gradientTransform="matrix(1 0 0 -1 0 513.5118)">
		<stop  offset="0" style="stop-color:#EDA847"/>
		<stop  offset="1" style="stop-color:#FDE493"/>
	</linearGradient>
	<polygon class="st14" points="243.3,1.2 248.2,103.8 99,115.8 145.6,38.6 	"/>
	
		<linearGradient id="SVGID_16_" gradientUnits="userSpaceOnUse" x1="332.2645" y1="341.5175" x2="327.4738" y2="418.9669" gradientTransform="matrix(1 0 0 -1 0 513.5118)">
		<stop  offset="0" style="stop-color:#EDA847"/>
		<stop  offset="1" style="stop-color:#FDE493"/>
	</linearGradient>
	<polygon class="st15" points="405.9,72.3 248.2,103.8 345.4,175.4 394.9,138.8 	"/>
	
		<linearGradient id="SVGID_17_" gradientUnits="userSpaceOnUse" x1="119.8319" y1="413.3033" x2="384.5977" y2="413.3033" gradientTransform="matrix(1 0 0 -1 0 513.5118)">
		<stop  offset="0" style="stop-color:#FFF1B9"/>
		<stop  offset="1" style="stop-color:#FDF2D8"/>
	</linearGradient>
	<polygon class="st16" points="323.3,25.6 384.6,76.8 374.9,134.2 332.3,165.8 170.9,184.9 135.5,154.8 119.8,114.4 160,47.8 
		244.2,15.5 	"/>
	
		<linearGradient id="SVGID_18_" gradientUnits="userSpaceOnUse" x1="209.8801" y1="409.9165" x2="291.7603" y2="409.9165" gradientTransform="matrix(1 0 0 -1 0 513.5118)">
		<stop  offset="0" style="stop-color:#FEEA8A"/>
		<stop  offset="1" style="stop-color:#FDE493"/>
	</linearGradient>
	<polygon class="st17" points="272.8,80.5 291.8,96.3 288.8,114.1 275.6,123.8 225.7,129.8 214.8,120.4 209.9,108 222.3,87.4 
		248.4,77.4 	"/>
	
		<linearGradient id="SVGID_19_" gradientUnits="userSpaceOnUse" x1="159.2694" y1="147.6642" x2="153.0293" y2="350.4676" gradientTransform="matrix(1 0 0 -1 0 513.5118)">
		<stop  offset="0" style="stop-color:#F16B48"/>
		<stop  offset="1" style="stop-color:#F26722"/>
	</linearGradient>
	<polygon class="st18" points="122.2,409.7 198.5,393.8 158.4,197.6 117.1,162.7 	"/>
	
		<linearGradient id="SVGID_20_" gradientUnits="userSpaceOnUse" x1="114.8397" y1="154.4941" x2="107.4026" y2="396.2003" gradientTransform="matrix(1 0 0 -1 0 513.5118)">
		<stop  offset="0" style="stop-color:#F04E23"/>
		<stop  offset="1" style="stop-color:#F26722"/>
	</linearGradient>
	<polygon class="st19" points="99,115.8 117.1,162.7 122.2,409.7 	"/>
	
		<linearGradient id="SVGID_21_" gradientUnits="userSpaceOnUse" x1="211.8058" y1="21.0061" x2="208.7788" y2="119.3863" gradientTransform="matrix(1 0 0 -1 0 513.5118)">
		<stop  offset="0" style="stop-color:#F04E23"/>
		<stop  offset="1" style="stop-color:#F26722"/>
	</linearGradient>
	<polygon class="st20" points="122.2,409.7 198.5,393.8 296.3,411.3 290.8,510.8 	"/>
	
		<linearGradient id="SVGID_22_" gradientUnits="userSpaceOnUse" x1="121.7245" y1="56.2978" x2="294.0514" y2="56.2978" gradientTransform="matrix(1 0 0 -1 0 513.5118)">
		<stop  offset="0" style="stop-color:#F16B48"/>
		<stop  offset="1" style="stop-color:#F05223"/>
	</linearGradient>
	<polygon class="st21" points="290.8,510.8 294.1,434.9 193.3,429.6 121.7,403.6 122.2,409.7 190.4,450.6 	"/>
	
		<linearGradient id="SVGID_23_" gradientUnits="userSpaceOnUse" x1="231.4382" y1="409.1196" x2="269.6398" y2="409.1196" gradientTransform="matrix(1 0 0 -1 0 513.5118)">
		<stop  offset="0" style="stop-color:#FDE493"/>
		<stop  offset="1" style="stop-color:#FEEA8A"/>
	</linearGradient>
	<polygon class="st22" points="260.8,93.6 269.6,101 268.3,109.3 262.1,113.9 238.9,116.6 233.7,112.3 231.4,106.4 237.3,96.8 
		249.4,92.1 	"/>
	<path class="st23" d="M394.9,138.8L346.2,176c-0.5,0.4-1.3,0.4-1.8,0.1c-0.5-0.3-0.6-0.8-0.1-1.2l0,0L394.9,138.8z"/>
	<path class="st23" d="M346.2,175.9l-49.9,235.4l47.4-235.7c0.1-0.5,0.7-0.8,1.4-0.7C345.8,175,346.3,175.5,346.2,175.9L346.2,175.9
		z"/>
	<path class="st23" d="M345.6,176.2l-187.2,21.4l186.8-23c0.7-0.1,1.3,0.2,1.5,0.7C346.6,175.7,346.2,176.1,345.6,176.2L345.6,176.2
		z"/>
	
		<linearGradient id="SVGID_24_" gradientUnits="userSpaceOnUse" x1="285.7206" y1="370.6627" x2="388.7978" y2="420.953" gradientTransform="matrix(1 0 0 -1 0 513.5118)">
		<stop  offset="0" style="stop-color:#FBFCFC"/>
		<stop  offset="0.1635" style="stop-color:#FBF5F8"/>
		<stop  offset="0.3919" style="stop-color:#FCE2EA"/>
		<stop  offset="0.6586" style="stop-color:#F9C5D6"/>
		<stop  offset="0.9522" style="stop-color:#F499BA"/>
		<stop  offset="1" style="stop-color:#F494B7"/>
	</linearGradient>
	<polygon class="st24" points="396.2,131 394.9,138.8 365.1,160.8 251.5,102.9 	"/>
	
		<linearGradient id="SVGID_25_" gradientUnits="userSpaceOnUse" x1="-1436.271" y1="1588.0872" x2="-1144.6173" y2="1730.3822" gradientTransform="matrix(0.3998 -0.9166 -0.9166 -0.3998 2358.4836 -209.7105)">
		<stop  offset="0" style="stop-color:#EE2465"/>
		<stop  offset="5.517917e-02" style="stop-color:#EE3071"/>
		<stop  offset="0.2519" style="stop-color:#F06597"/>
		<stop  offset="0.4397" style="stop-color:#F49ABB"/>
		<stop  offset="0.6134" style="stop-color:#F9C4D7"/>
		<stop  offset="0.77" style="stop-color:#FCE2EA"/>
		<stop  offset="0.9041" style="stop-color:#FBF5F8"/>
		<stop  offset="1" style="stop-color:#FBFCFC"/>
	</linearGradient>
	<polygon class="st25" points="345.4,175.4 290.8,510.8 369.5,502.7 349.5,293.3 	"/>
	
		<linearGradient id="SVGID_26_" gradientUnits="userSpaceOnUse" x1="372.2273" y1="117.4954" x2="360.7151" y2="68.7554" gradientTransform="matrix(1 0 0 -1 0 513.5118)">
		<stop  offset="2.119276e-07" style="stop-color:#F16B48"/>
		<stop  offset="1" style="stop-color:#F47C20"/>
	</linearGradient>
	<path class="st26" d="M375.3,396.8l-9.5,1.2c0,0-12.7,12.2-12.8,24.7c-0.2,14.2,12.9,23.4,12.9,23.4l7.9-0.1c0,0-14-10.2-12.3-24
		C363.3,408,375.3,396.8,375.3,396.8z"/>
	<polygon class="st27" points="296.3,411.3 262.4,359.1 282.9,326.9 310.1,346.3 	"/>
	<path class="st23" d="M345.4,175.4c-8.3-5.8-16.2-11.7-24.2-17.5s-15.8-12-23.7-17.8c-7.8-6.1-15.6-12.1-23.3-18.1l-11.5-9.2
		c-3.8-3.1-7.6-6.2-11.3-9.3c4.1,2.9,8.2,5.8,12.3,8.8l12.1,8.9c8,5.9,15.8,12,23.7,17.8c7.8,6.1,15.6,12.1,23.3,18.1
		C330.2,163.1,337.9,169.1,345.4,175.4z"/>
	
		<linearGradient id="SVGID_27_" gradientUnits="userSpaceOnUse" x1="261.5966" y1="425.6649" x2="383.7258" y2="485.2506" gradientTransform="matrix(1 0 0 -1 0 513.5118)">
		<stop  offset="0" style="stop-color:#FBFCFC"/>
		<stop  offset="0.1635" style="stop-color:#FBF5F8"/>
		<stop  offset="0.3919" style="stop-color:#FCE2EA"/>
		<stop  offset="0.6586" style="stop-color:#F9C5D6"/>
		<stop  offset="0.9522" style="stop-color:#F499BA"/>
		<stop  offset="1" style="stop-color:#F494B7"/>
	</linearGradient>
	<polygon class="st28" points="381.9,52.2 251.5,102.9 347,23.1 	"/>
</g>
</svg>
